<svg width="85" height="93" viewBox="0 0 85 93" fill="none" xmlns="http://www.w3.org/2000/svg">
<circle cx="42.5" cy="49.5" r="42.5" fill="#C4C4C4"/>
<path d="M26.2436 41.3068C25.7489 40.3364 25.2699 39.3535 24.8098 38.3675C23.9086 36.4391 23.064 34.464 22.6859 32.3738C21.46 25.6305 24.9926 18.2776 30.063 13.9542C37.2794 7.80503 47.5021 5.48158 55.4527 0.026001C55.0121 2.70773 53.5597 5.12563 51.3876 6.79416C55.1092 3.96372 66.1985 8.62616 69.6649 10.3742C75.4124 13.2304 80.2966 17.53 83.8266 22.8405C80.0845 21.339 76.0109 20.8245 72.0062 21.3476C75.1197 24.3242 78.3592 27.4999 79.5378 31.6118C73.9506 27.6367 65.0294 29.5496 61.626 35.4749C59.4422 39.2695 59.4737 43.8915 58.1596 48.0625C56.7731 52.4792 53.0325 55.2848 48.6334 56.4605C45.3182 57.3563 38.7951 57.7606 35.792 55.8384C34.8812 55.2568 34.2163 54.3672 33.605 53.4901C30.8597 49.6077 28.3997 45.5363 26.2436 41.3068Z" fill="#00214E"/>
<path d="M29.7197 47.828C32.6784 47.828 35.0768 45.4607 35.0768 42.5404C35.0768 39.6202 32.6784 37.2528 29.7197 37.2528C26.761 37.2528 24.3625 39.6202 24.3625 42.5404C24.3625 45.4607 26.761 47.828 29.7197 47.828Z" fill="#845161"/>
<path d="M31.5659 47.206C34.3506 47.206 36.608 44.9779 36.608 42.2294C36.608 39.4809 34.3506 37.2528 31.5659 37.2528C28.7813 37.2528 26.5239 39.4809 26.5239 42.2294C26.5239 44.9779 28.7813 47.206 31.5659 47.206Z" fill="#69303A"/>
<path d="M76.5 75.5C55.4345 91.5094 31.9215 94.1926 11 78L24.605 73.4638C25.3353 73.125 26.0362 72.7275 26.7006 72.2756C26.9023 72.1387 27.104 71.9957 27.2962 71.8464C28.9651 70.586 30.3388 68.9851 31.3235 67.1528C32.584 64.8045 33 62.2105 33.0189 59.5666C33.0189 58.6926 33 57.8155 32.9748 56.9384C32.9496 56.0613 32.9118 55.1313 32.9023 54.2261C32.8897 53.2411 32.8792 52.2551 32.8708 51.2682L33.501 51.5792L35.1397 52.4159L35.8992 52.5434L44.6849 54.0178L54.4916 55.6662L54.7878 65.6194L54.9107 69.7531L54.9328 70.4529V70.5556L58.7458 72.0859L76.5 75.5Z" fill="#845161"/>
<path d="M54.9045 69.7313L54.4192 69.7811C49.6768 70.1914 44.9909 68.5255 41.603 65.2244L32.9748 54.8545C32.9465 53.9525 32.9118 55.1126 32.9024 54.2075C32.8898 53.2225 32.8793 52.2365 32.8708 51.2496L33.5011 51.5606L35.1398 52.3973L35.8992 52.5248L44.6849 53.9991L54.4916 55.6476L54.7879 65.6008L54.9045 69.7313Z" fill="#69303A"/>
<path d="M32.4486 32.6775C31.4658 33.5354 30.8338 34.7176 30.6712 36.0025C30.0126 42.077 32.291 49.2464 32.9244 55.3303L44.4013 63.6848C48.2149 66.4965 53.0874 67.5133 57.728 66.4654C59.5778 66.0331 60.75 65.7532 61.5851 64.2882C63.1986 61.4888 67.1597 51.912 67.4181 45.1563C67.4906 43.2372 67.4433 40.3135 66.2458 38.6805C65.6628 37.8874 65.3635 37.8687 65.5746 36.749C65.792 35.5795 66.104 34.4224 66.3656 33.2623C66.7456 31.5842 66.8518 29.8569 66.6807 28.1457C66.5074 26.5905 66.5137 25.2095 66.3467 23.6264C66.2647 22.8581 65.9181 19.4958 65.9181 19.4958C63.917 22.4693 60.3057 24.0307 56.9654 25.0571C52.4212 26.4506 47.6912 27.1317 43.0841 28.3012C40.0305 29.0882 35.0925 30.2079 32.4486 32.6775Z" fill="#845161"/>
<path d="M46.065 37.3649C47.9873 37.3804 47.9873 40.2824 46.065 40.298H45.98C44.0545 40.2824 44.0545 37.3804 45.98 37.3649H46.065Z" fill="#00214E"/>
<path d="M62.6692 36.4783C64.4559 36.4783 64.4559 39.1843 62.6692 39.1999H62.5904C60.8068 39.1843 60.8068 36.4908 62.5904 36.4783H62.6692Z" fill="#00214E"/>
<path d="M47.4736 51.3459C48.9875 53.0153 51.0632 54.0862 53.3161 54.3599" stroke="#00214E"/>
<path d="M41.5906 33.8842C44.5077 33.287 47.5083 33.203 50.4551 33.6354" stroke="#00214E"/>
<path d="M60.1985 33.903C61.9997 33.4921 63.8558 33.3652 65.6974 33.5266" stroke="#00214E"/>
<path d="M76.5 75.5C55.5 95 32 95 10.5 77.5L24.605 73.4638C25.3353 73.125 26.0362 72.7275 26.7006 72.2756C26.9023 72.1387 27.104 71.9957 27.2962 71.8464C34.7174 77.0594 44.8456 80.347 53.6061 76.4559C55.6922 75.5228 57.6082 74.0174 58.7426 72.0828L76.5 75.5Z" fill="#FF2609"/>
<path d="M51.359 46.1112C50.8885 46.3488 50.6642 46.8894 50.8299 47.3846C50.996 47.8797 51.5027 48.1818 52.0239 48.0956" stroke="#00214E"/>
<path d="M56.2151 37.0787C56.9997 40.0491 57.6521 42.9884 58.3989 45.965C58.4865 46.2381 58.5186 46.5255 58.4934 46.811C58.3579 47.6664 57.3275 48.0179 56.4703 48.2014" stroke="#00214E"/>
</svg>
